<svg xmlns="http://www.w3.org/2000/svg" width="16.666" height="16.667" viewBox="0 0 16.666 16.667"><defs><style>.a{fill:#fff;fill-rule:evenodd;}</style></defs><path class="a" d="M13.1,18.333V11.879h2.167L15.6,9.364H13.1V7.758c0-.728.2-1.225,1.248-1.225h1.332V4.283a17.826,17.826,0,0,0-1.942-.1,3.031,3.031,0,0,0-3.234,3.325V9.364H8.333v2.515h2.173v6.454H2.587a.919.919,0,0,1-.92-.92V2.587a.919.919,0,0,1,.92-.92H17.414a.919.919,0,0,1,.919.92V17.414a.92.92,0,0,1-.92.92H13.1Z" transform="translate(-1.667 -1.667)"/></svg>