<svg xmlns="http://www.w3.org/2000/svg" width="33.675" height="33.677" viewBox="0 0 33.675 33.677"><defs><style>.a{fill:#4a4a4a;fill-rule:evenodd;}</style></defs><path class="a" d="M24.776,35.342V22.3h4.379l.655-5.082H24.774V13.974c0-1.471.41-2.475,2.522-2.475h2.691V6.953a36.019,36.019,0,0,0-3.924-.2c-3.88,0-6.535,2.37-6.535,6.718v3.75H15.136V22.3h4.391V35.342h-16a1.857,1.857,0,0,1-1.859-1.859V3.526A1.857,1.857,0,0,1,3.526,1.667H33.485a1.856,1.856,0,0,1,1.857,1.859V33.485a1.859,1.859,0,0,1-1.859,1.859H24.776Z" transform="translate(-1.667 -1.667)"/></svg>