<svg xmlns="http://www.w3.org/2000/svg" width="16.666" height="13.554" viewBox="0 0 16.666 13.554"><defs><style>.a{fill:#fff;}</style></defs><path class="a" d="M6.9,16.886a9.668,9.668,0,0,0,9.73-9.731c0-.147,0-.293-.007-.44A6.967,6.967,0,0,0,18.333,4.94a6.931,6.931,0,0,1-1.967.541,3.441,3.441,0,0,0,1.507-1.894,6.8,6.8,0,0,1-2.175.828,3.419,3.419,0,0,0-5.914,2.34,3.728,3.728,0,0,0,.087.78A9.712,9.712,0,0,1,2.821,3.96,3.429,3.429,0,0,0,3.882,8.528,3.459,3.459,0,0,1,2.333,8.1v.047A3.428,3.428,0,0,0,5.075,11.5a3.334,3.334,0,0,1-.9.12,3.385,3.385,0,0,1-.642-.06,3.42,3.42,0,0,0,3.2,2.375A6.859,6.859,0,0,1,2.48,15.406a6.442,6.442,0,0,1-.813-.047A9.728,9.728,0,0,0,6.9,16.887" transform="translate(-1.667 -3.333)"/></svg>