<svg xmlns="http://www.w3.org/2000/svg" width="33.675" height="27.387" viewBox="0 0 33.675 27.387"><defs><style>.a{fill:#4a4a4a;}</style></defs><path class="a" d="M12.245,30.718c12.707,0,19.66-10.539,19.66-19.662,0-.3,0-.592-.014-.889A14.077,14.077,0,0,0,35.342,6.58a14,14,0,0,1-3.974,1.093,6.953,6.953,0,0,0,3.045-3.827,13.746,13.746,0,0,1-4.395,1.673,6.908,6.908,0,0,0-11.95,4.728,7.533,7.533,0,0,0,.176,1.576A19.624,19.624,0,0,1,4,4.6a6.928,6.928,0,0,0,2.144,9.23,6.989,6.989,0,0,1-3.13-.861v.095a6.926,6.926,0,0,0,5.54,6.779,6.737,6.737,0,0,1-1.819.242,6.839,6.839,0,0,1-1.3-.121,6.91,6.91,0,0,0,6.456,4.8A13.859,13.859,0,0,1,3.31,27.727a13.017,13.017,0,0,1-1.643-.095,19.656,19.656,0,0,0,10.58,3.087" transform="translate(-1.667 -3.333)"/></svg>