<svg xmlns="http://www.w3.org/2000/svg" width="134.545" height="113.881" viewBox="0 0 134.545 113.881"><defs><style>.a{opacity:0.5;}.b,.c,.d{fill:none;stroke:#b9b9b9;stroke-width:2.5px;}.b,.d{stroke-linejoin:round;}.c{stroke-miterlimit:10;}.d{stroke-linecap:round;}</style></defs><g class="a" transform="translate(1.765 1.25)"><path class="b" d="M18.868,6.25H119.652A15.118,15.118,0,0,1,134.77,21.368V102a15.118,15.118,0,0,1-15.118,15.118H18.868A15.118,15.118,0,0,1,3.75,102V21.368A15.118,15.118,0,0,1,18.868,6.25Z" transform="translate(-3.75 -6.25)"/><path class="c" d="M43.907,21.328A10.078,10.078,0,1,1,33.828,11.25,10.078,10.078,0,0,1,43.907,21.328Z" transform="translate(56.878 8.907)"/><path class="d" d="M84.378,49.885l-28.554-28.5a10.078,10.078,0,0,0-13.816-.411L3.75,54.989" transform="translate(-3.75 30.678)"/><path class="d" d="M17.5,65.185,56.346,26.339a10.078,10.078,0,0,1,13.578-.629L93.088,45.028" transform="translate(37.931 45.678)"/></g></svg>